<svg xmlns="http://www.w3.org/2000/svg" width="21.859" height="21.859" viewBox="0 0 21.859 21.859">
    <path fill="#fff" d="M7.558 19.487a2.186 2.186 0 1 0 2.186 2.186 2.183 2.183 0 0 0-2.186-2.186zM1 2v2.186h2.186l3.935 8.3-1.476 2.673a2.113 2.113 0 0 0-.273 1.049 2.192 2.192 0 0 0 2.186 2.186h13.115v-2.185H8.017a.271.271 0 0 1-.273-.273l.033-.131.984-1.782H16.9a2.176 2.176 0 0 0 1.915-1.123l3.913-7.1a1.068 1.068 0 0 0 .131-.525 1.1 1.1 0 0 0-1.093-1.093H5.6L4.574 2H1zm17.487 17.487a2.186 2.186 0 1 0 2.186 2.186 2.183 2.183 0 0 0-2.186-2.186z" transform="translate(-1 -2)"/>
</svg>
