<svg xmlns="http://www.w3.org/2000/svg" width="26.029" height="17.895" viewBox="0 0 26.029 17.895">
    <defs>
        <style>
            .cls-1{fill:#fff}
        </style>
    </defs>
    <g id="credit-card" transform="translate(0 -80)">
        <path id="Path_1495" d="M26.029 84.22v-1.373A2.847 2.847 0 0 0 23.182 80H2.847A2.847 2.847 0 0 0 0 82.847v1.373a.254.254 0 0 0 .254.254h25.52a.254.254 0 0 0 .255-.254z" class="cls-1"/>
        <path id="Path_1496" d="M0 200.254v8.693a2.847 2.847 0 0 0 2.847 2.847h20.335a2.847 2.847 0 0 0 2.847-2.847v-8.693a.254.254 0 0 0-.254-.254H.254a.254.254 0 0 0-.254.254zm6.507 6.66a.813.813 0 0 1-.813.813H4.88a.813.813 0 0 1-.813-.813v-.814a.813.813 0 0 1 .813-.813h.813a.813.813 0 0 1 .813.813z" class="cls-1" transform="translate(0 -113.899)"/>
    </g>
</svg>
