<svg xmlns="http://www.w3.org/2000/svg" width="25.291" height="26.001" viewBox="0 0 25.291 26.001">
    <path fill="#fff" d="M24.578 16.274A10.131 10.131 0 0 0 24.669 15a10.132 10.132 0 0 0-.091-1.274l2.743-2.145a.656.656 0 0 0 .156-.832l-2.6-4.5a.653.653 0 0 0-.793-.286l-3.237 1.3a9.5 9.5 0 0 0-2.2-1.274l-.494-3.445A.634.634 0 0 0 17.519 2h-5.2a.634.634 0 0 0-.637.546l-.494 3.445a9.988 9.988 0 0 0-2.2 1.274l-3.237-1.3a.634.634 0 0 0-.793.286l-2.6 4.5a.641.641 0 0 0 .156.832l2.746 2.143A10.31 10.31 0 0 0 5.169 15a10.31 10.31 0 0 0 .091 1.274l-2.743 2.145a.656.656 0 0 0-.156.832l2.6 4.5a.653.653 0 0 0 .793.286l3.237-1.3a9.5 9.5 0 0 0 2.2 1.274l.494 3.445a.634.634 0 0 0 .637.546h5.2a.634.634 0 0 0 .637-.546l.494-3.445a9.988 9.988 0 0 0 2.2-1.274l3.237 1.3a.634.634 0 0 0 .793-.286l2.6-4.5a.656.656 0 0 0-.156-.832zm-9.659 3.276a4.55 4.55 0 1 1 4.55-4.55 4.555 4.555 0 0 1-4.55 4.55z" transform="translate(-2.271 -2)"/>
</svg>
