<svg xmlns="http://www.w3.org/2000/svg" width="32.99" height="32.99" viewBox="0 0 32.99 32.99">
    <path fill="none" d="M0 0h32.99v32.99H0z"/>
    <path fill="#24be92" d="M23.282 11.615L17.261 2.6a1.364 1.364 0 0 0-1.141-.577 1.343 1.343 0 0 0-1.141.591l-6.021 9H2.375A1.379 1.379 0 0 0 1 12.989a1.158 1.158 0 0 0 .055.371L4.546 26.1a2.734 2.734 0 0 0 2.64 2.01h17.87a2.762 2.762 0 0 0 2.652-2.01L31.2 13.36l.041-.371a1.379 1.379 0 0 0-1.375-1.375zm-11.282 0l4.124-6.048 4.124 6.048zm4.124 11a2.749 2.749 0 1 1 2.749-2.749 2.757 2.757 0 0 1-2.752 2.745z" transform="translate(.375 .757)"/>
</svg>
