<svg xmlns="http://www.w3.org/2000/svg" width="36.785" height="36.785" viewBox="0 0 36.785 36.785">
    <path fill="none" d="M0 0h36.785v36.785H0z"/>
    <path fill="#ffad3d" d="M18.86 22.925h-3.066a1.537 1.537 0 0 1-1.533-1.533H3.548v6.131a3.074 3.074 0 0 0 3.065 3.065h21.443a3.074 3.074 0 0 0 3.065-3.065v-6.131H20.392a1.537 1.537 0 0 1-1.532 1.533zM29.589 9.131h-6.131a6.131 6.131 0 0 0-12.262 0H5.065A3.074 3.074 0 0 0 2 12.2v4.6a3.055 3.055 0 0 0 3.065 3.06h9.2v-1.533a1.537 1.537 0 0 1 1.533-1.533h3.062a1.537 1.537 0 0 1 1.533 1.533v1.533h9.2a3.074 3.074 0 0 0 3.065-3.065V12.2a3.074 3.074 0 0 0-3.069-3.069zm-15.327 0a3.065 3.065 0 0 1 6.131 0h-6.131z" transform="translate(1.065 1.598)"/>
</svg>
