<svg xmlns="http://www.w3.org/2000/svg" width="25.404" height="22.864" viewBox="0 0 25.404 22.864">
    <g>
        <g>
            <path fill="#fff" fill-rule="evenodd" d="M24.864 3H4.54A2.548 2.548 0 0 0 2 5.54v17.783a2.548 2.548 0 0 0 2.54 2.54h20.324a2.548 2.548 0 0 0 2.54-2.54V5.54A2.548 2.548 0 0 0 24.864 3zM10.891 20.783h-3.81a1.27 1.27 0 0 1 0-2.54h3.811a1.27 1.27 0 1 1 0 2.54zm0-5.081h-3.81a1.27 1.27 0 0 1 0-2.54h3.811a1.27 1.27 0 1 1 0 2.54zm0-5.081h-3.81a1.27 1.27 0 1 1 0-2.54h3.811a1.27 1.27 0 1 1 0 2.54zm12.321 2.693l-4.027 4.027a1.28 1.28 0 0 1-1.8 0l-1.791-1.8a1.266 1.266 0 1 1 1.791-1.791l.9.9 3.137-3.137a1.265 1.265 0 0 1 1.791 0l.013.013a1.277 1.277 0 0 1-.014 1.788z" transform="translate(-2 -3) translate(2 3) translate(-2 -3)"/>
        </g>
    </g>
</svg>
