<svg xmlns="http://www.w3.org/2000/svg" width="28.555" height="28.555" viewBox="0 0 28.555 28.555">
    <path fill="#fff" d="M16.278 2a14.278 14.278 0 1 0 14.277 14.278A14.283 14.283 0 0 0 16.278 2zm2.013 22.973v.827a1.907 1.907 0 0 1-1.9 1.9h-.014a1.907 1.907 0 0 1-1.9-1.9v-.857a5.662 5.662 0 0 1-4.3-3.2 1.216 1.216 0 0 1 1.142-1.656h.343a1.268 1.268 0 0 1 1.156.857c.414 1.071 1.5 1.813 3.584 1.813 2.8 0 3.427-1.4 3.427-2.27 0-1.185-.628-2.3-3.812-3.055-3.541-.857-5.968-2.313-5.968-5.24 0-2.456 1.985-4.055 4.44-4.583v-.855a1.907 1.907 0 0 1 1.9-1.9h.014a1.907 1.907 0 0 1 1.9 1.9v.886a5.082 5.082 0 0 1 3.755 3.227A1.213 1.213 0 0 1 20.9 12.48h-.371a1.154 1.154 0 0 1-1.1-.885c-.329-1.086-1.224-1.785-3.023-1.785-2.142 0-3.427.971-3.427 2.342 0 1.2.928 1.985 3.812 2.727s5.968 1.985 5.968 5.583c-.029 2.613-1.985 4.041-4.469 4.512z" transform="translate(-2 -2)"/>
</svg>
