<svg xmlns="http://www.w3.org/2000/svg" width="29.119" height="23.295" viewBox="0 0 29.119 23.295">
    <path fill="#3db4ff" d="M28.207 6.912H16.559l-2.052-2.053A2.921 2.921 0 0 0 12.439 4H4.912a2.908 2.908 0 0 0-2.9 2.912L2 24.383a2.92 2.92 0 0 0 2.912 2.912h23.3a2.92 2.92 0 0 0 2.912-2.912V9.824a2.92 2.92 0 0 0-2.917-2.912zm-7.28 4.368a2.912 2.912 0 1 1-2.912 2.912 2.92 2.92 0 0 1 2.912-2.912zm5.824 11.647H15.1v-1.456c0-1.936 3.887-2.912 5.824-2.912s5.824.975 5.824 2.912z" transform="translate(-2 -4)"/>
</svg>
