<svg xmlns="http://www.w3.org/2000/svg" width="25.055" height="26.161" viewBox="0 0 25.055 26.161">
    <path fill="#fff" d="M27.054 18.589a1.419 1.419 0 0 0-.646-1.174l-9.9-6.185V3.978a1.978 1.978 0 0 0-3.956 0v7.253l-9.9 6.185A1.4 1.4 0 0 0 2 18.589a1.383 1.383 0 0 0 1.793 1.319l8.756-2.743v7.253L10.176 26.2a.632.632 0 0 0-.264.527v.773a.663.663 0 0 0 .844.633l3.771-1.081 3.773 1.084a.663.663 0 0 0 .844-.633v-.778a.632.632 0 0 0-.264-.527l-2.374-1.78v-7.253l8.756 2.743a1.383 1.383 0 0 0 1.792-1.319z" transform="translate(-2 -2)"/>
</svg>
