<svg xmlns="http://www.w3.org/2000/svg" width="15.6" height="26" viewBox="0 0 15.6 26">
    <path fill="#fff" d="M8.6 2A2.608 2.608 0 0 0 6 4.6l.013 4.134a2.62 2.62 0 0 0 .754 1.833L11.2 15l-4.433 4.459a2.6 2.6 0 0 0-.754 1.833L6 25.4A2.608 2.608 0 0 0 8.6 28H19a2.608 2.608 0 0 0 2.6-2.6v-4.108a2.6 2.6 0 0 0-.754-1.833L16.4 15l4.433-4.42a2.608 2.608 0 0 0 .767-1.846V4.6A2.608 2.608 0 0 0 19 2zM19 21.383V24.1a1.3 1.3 0 0 1-1.3 1.3H9.9a1.3 1.3 0 0 1-1.3-1.3v-2.717a1.343 1.343 0 0 1 .377-.923l4.823-4.81 4.823 4.823a1.311 1.311 0 0 1 .377.91z" transform="translate(-6 -2)"/>
</svg>
