<svg xmlns="http://www.w3.org/2000/svg" width="26.337" height="23.703" viewBox="0 0 26.337 23.703">
    <path fill="#fff" d="M16.486 20.119h-2.634a1.321 1.321 0 0 1-1.317-1.319H3.33v5.27a2.641 2.641 0 0 0 2.634 2.63h18.423a2.641 2.641 0 0 0 2.633-2.63V18.8H17.8a1.321 1.321 0 0 1-1.314 1.319zM25.7 8.267h-5.264a5.267 5.267 0 0 0-10.535 0H4.634A2.641 2.641 0 0 0 2 10.9v3.951a2.625 2.625 0 0 0 2.634 2.634h7.9v-1.316a1.321 1.321 0 0 1 1.317-1.317h2.634a1.321 1.321 0 0 1 1.315 1.317v1.317h7.9a2.641 2.641 0 0 0 2.634-2.634V10.9A2.641 2.641 0 0 0 25.7 8.267zm-13.169 0a2.634 2.634 0 0 1 5.267 0h-5.263z" transform="translate(-2 -3)"/>
</svg>
