<svg xmlns="http://www.w3.org/2000/svg" width="47.333" height="47.333" viewBox="0 0 47.333 47.333">
    <path fill="#a5bac3" d="M45.074 3H8.259A5.275 5.275 0 0 0 3 8.259v36.815a5.275 5.275 0 0 0 5.259 5.259h36.815a5.275 5.275 0 0 0 5.259-5.259V8.259A5.275 5.275 0 0 0 45.074 3zm-14.305 9.283a1.984 1.984 0 0 1 2.787 0L35.87 14.6l2.314-2.314a1.984 1.984 0 0 1 2.787 0 1.984 1.984 0 0 1 0 2.787l-2.314 2.314 2.315 2.313a1.984 1.984 0 0 1 0 2.787 1.984 1.984 0 0 1-2.787 0L35.87 20.2l-2.314 2.314a1.984 1.984 0 0 1-2.787 0 1.984 1.984 0 0 1 0-2.787l2.314-2.314-2.314-2.313a1.968 1.968 0 0 1 0-2.817zm-17.25 3.129h9.2a1.987 1.987 0 0 1 1.972 1.972 1.987 1.987 0 0 1-1.972 1.972h-9.2a1.987 1.987 0 0 1-1.972-1.972 1.987 1.987 0 0 1 1.972-1.972zm9.861 21.773h-3.287v3.287a1.987 1.987 0 0 1-1.972 1.972 1.987 1.987 0 0 1-1.972-1.972v-3.287h-3.288a1.987 1.987 0 0 1-1.972-1.972 1.987 1.987 0 0 1 1.972-1.972h3.287v-3.287a1.987 1.987 0 0 1 1.972-1.972 1.987 1.987 0 0 1 1.972 1.972v3.287h3.288a1.987 1.987 0 0 1 1.972 1.972 1.987 1.987 0 0 1-1.972 1.972zm17.093 3.287h-9.2A1.987 1.987 0 0 1 29.3 38.5a1.987 1.987 0 0 1 1.972-1.972h9.2a1.987 1.987 0 0 1 1.972 1.972 1.987 1.987 0 0 1-1.972 1.972zm0-6.574h-9.2a1.987 1.987 0 0 1-1.973-1.972 1.987 1.987 0 0 1 1.972-1.972h9.2a1.987 1.987 0 0 1 1.972 1.972 1.987 1.987 0 0 1-1.972 1.974z" transform="translate(-3 -3)"/>
</svg>
