<svg xmlns="http://www.w3.org/2000/svg" width="43.412" height="47.272" viewBox="0 0 43.412 47.272">
    <path fill="#24be92" d="M46.412 2.224a1.131 1.131 0 0 0-.844.362l-1.905 1.905a1.194 1.194 0 0 1-1.712 0l-1.906-1.905a1.194 1.194 0 0 0-1.712 0l-1.906 1.905a1.194 1.194 0 0 1-1.712 0L32.81 2.586a1.194 1.194 0 0 0-1.712 0l-1.906 1.905a1.194 1.194 0 0 1-1.712 0l-1.906-1.905a1.194 1.194 0 0 0-1.712 0l-1.905 1.905a1.194 1.194 0 0 1-1.712 0l-1.93-1.929a1.194 1.194 0 0 0-1.712 0L14.7 4.491a1.194 1.194 0 0 1-1.712 0l-1.909-1.929a1.194 1.194 0 0 0-1.712 0L7.462 4.491a1.194 1.194 0 0 1-1.712 0L3.844 2.562A1.205 1.205 0 0 0 3 2.224v47.248a1.131 1.131 0 0 0 .844-.362l1.905-1.91a1.194 1.194 0 0 1 1.712 0l1.906 1.91a1.194 1.194 0 0 0 1.712 0l1.906-1.91a1.194 1.194 0 0 1 1.712 0l1.903 1.91a1.194 1.194 0 0 0 1.712 0l1.908-1.91a1.194 1.194 0 0 1 1.712 0l1.905 1.905a1.194 1.194 0 0 0 1.712 0l1.906-1.905a1.194 1.194 0 0 1 1.712 0l1.905 1.905a1.194 1.194 0 0 0 1.712 0l1.907-1.905a1.194 1.194 0 0 1 1.712 0l1.905 1.905a1.194 1.194 0 0 0 1.712 0l1.906-1.905a1.194 1.194 0 0 1 1.712 0l1.905 1.905a1.211 1.211 0 0 0 .844.362V2.224zm-9.647 35.671H12.647a2.412 2.412 0 0 1 0-4.824h24.118a2.412 2.412 0 0 1 0 4.824zm0-9.647H12.647a2.412 2.412 0 0 1 0-4.824h24.118a2.412 2.412 0 0 1 0 4.824zm0-9.647H12.647a2.412 2.412 0 0 1 0-4.824h24.118a2.412 2.412 0 0 1 0 4.824z" transform="translate(-3 -2.2)"/>
</svg>
