<svg xmlns="http://www.w3.org/2000/svg" width="39.357" height="49.196" viewBox="0 0 39.357 49.196">
    <path fill="#ffad3d" d="M30.049 3.451A4.935 4.935 0 0 0 26.556 2H8.92A4.934 4.934 0 0 0 4 6.92v39.357A4.913 4.913 0 0 0 8.9 51.2h29.537a4.934 4.934 0 0 0 4.92-4.92V18.8a4.836 4.836 0 0 0-1.451-3.468L30.049 3.451zm1.009 37.906H16.3a2.46 2.46 0 1 1 0-4.92h14.758a2.46 2.46 0 1 1 0 4.92zm0-9.839H16.3a2.46 2.46 0 0 1 0-4.92h14.758a2.46 2.46 0 1 1 0 4.92zm-4.92-14.759V5.69l13.529 13.529H28.6a2.467 2.467 0 0 1-2.462-2.46z" transform="translate(-4 -2)"/>
</svg>
