<svg xmlns="http://www.w3.org/2000/svg" id="tick" width="27.655" height="27.655" viewBox="0 0 27.655 27.655">
    <defs>
        <style>
            .cls-1{fill:#24be92}
        </style>
    </defs>
    <g id="Group_839" transform="translate(6.652 8.932)">
        <g id="Group_838">
            <path id="Path_891" d="M137.239 165.714a1.121 1.121 0 0 0-1.585-.042l-7.154 6.788-3.414-3.505a1.121 1.121 0 0 0-1.606 1.564l4.186 4.3a1.122 1.122 0 0 0 1.575.031l7.96-7.549a1.121 1.121 0 0 0 .038-1.587z" class="cls-1" transform="translate(-123.158 -165.364)"/>
        </g>
    </g>
    <g id="Group_841">
        <g id="Group_840">
            <path id="Path_892" d="M13.828 0a13.828 13.828 0 1 0 13.827 13.828A13.843 13.843 0 0 0 13.828 0zm0 25.413a11.585 11.585 0 1 1 11.585-11.585 11.6 11.6 0 0 1-11.585 11.585z" class="cls-1"/>
        </g>
    </g>
</svg>
