<svg xmlns="http://www.w3.org/2000/svg" width="22.003" height="22.003" viewBox="0 0 22.003 22.003">
    <g>
        <g>
            <path fill="#ffad3d" d="M12.78 10.029v4.5a1.237 1.237 0 0 0 .6 1.051l3.815 2.262a.926.926 0 0 0 1.259-.318.915.915 0 0 0-.318-1.259l-3.509-2.091v-4.157a.94.94 0 0 0-.929-.9.924.924 0 0 0-.918.912zm12.226.917V4.479a.605.605 0 0 0-1.039-.428l-2.176 2.176a11.005 11.005 0 1 0 3.13 9.145A1.228 1.228 0 0 0 23.7 14a1.2 1.2 0 0 0-1.2 1.051 8.577 8.577 0 0 1-8.619 7.507 8.684 8.684 0 0 1-8.436-8.436 8.559 8.559 0 0 1 14.61-6.174L17.5 10.506a.612.612 0 0 0 .428 1.051H24.4a.605.605 0 0 0 .606-.611z" transform="translate(-3.003 -3.003) translate(3.003 3.003) translate(-3.003 -3.003)"/>
        </g>
    </g>
</svg>
