<svg xmlns="http://www.w3.org/2000/svg" width="18.172" height="22.715" viewBox="0 0 18.172 22.715">
    <path fill="#fff" d="M16.028 2.67A2.278 2.278 0 0 0 14.415 2H6.271A2.278 2.278 0 0 0 4 4.271v18.172a2.268 2.268 0 0 0 2.26 2.271H19.9a2.278 2.278 0 0 0 2.271-2.271V9.757a2.233 2.233 0 0 0-.67-1.6L16.028 2.67zm.466 17.5H9.679a1.136 1.136 0 0 1 0-2.271h6.814a1.136 1.136 0 1 1 0 2.271zm0-4.543H9.679a1.136 1.136 0 1 1 0-2.271h6.814a1.136 1.136 0 1 1 0 2.271zm-2.272-6.813V3.7l6.246 6.25h-5.111a1.139 1.139 0 0 1-1.135-1.136z" transform="translate(-4 -2)"/>
</svg>
