<svg xmlns="http://www.w3.org/2000/svg" width="16.607" height="18.083" viewBox="0 0 16.607 18.083">
    <path fill="#fff" d="M19.607 2.209a.433.433 0 0 0-.323.138l-.729.729a.457.457 0 0 1-.655 0l-.729-.729a.457.457 0 0 0-.655 0l-.729.729a.457.457 0 0 1-.655 0l-.732-.728a.457.457 0 0 0-.655 0l-.729.729a.457.457 0 0 1-.655 0l-.729-.729a.457.457 0 0 0-.655 0l-.729.729a.457.457 0 0 1-.655 0l-.738-.738a.457.457 0 0 0-.655 0l-.729.738a.457.457 0 0 1-.655 0l-.729-.738a.457.457 0 0 0-.655 0l-.729.738a.457.457 0 0 1-.655 0l-.729-.738A.461.461 0 0 0 3 2.209v18.074a.433.433 0 0 0 .323-.138l.729-.729a.457.457 0 0 1 .655 0l.729.729a.457.457 0 0 0 .655 0l.729-.729a.457.457 0 0 1 .655 0l.729.729a.457.457 0 0 0 .655 0l.729-.729a.457.457 0 0 1 .655 0l.729.729a.457.457 0 0 0 .655 0l.729-.729a.457.457 0 0 1 .655 0l.729.729a.457.457 0 0 0 .655 0l.729-.729a.457.457 0 0 1 .655 0l.729.729a.457.457 0 0 0 .655 0l.729-.729a.457.457 0 0 1 .655 0l.729.729a.463.463 0 0 0 .323.138V2.209zm-3.69 13.645H6.69a.923.923 0 1 1 0-1.845h9.226a.923.923 0 1 1 0 1.845zm0-3.69H6.69a.923.923 0 1 1 0-1.845h9.226a.923.923 0 1 1 0 1.845zm0-3.69H6.69a.923.923 0 1 1 0-1.845h9.226a.923.923 0 1 1 0 1.845z" transform="translate(-3 -2.2)"/>
</svg>
