<svg xmlns="http://www.w3.org/2000/svg" width="27.025" height="27.025" viewBox="0 0 27.025 27.025">
    <path fill="none" d="M0 0h27.025v27.025H0z"/>
    <path fill="#8b7f70" d="M8.28 4.279l-1.61-1.61a11.739 11.739 0 0 0-4.64 8.839h2.252A9.51 9.51 0 0 1 8.28 4.279zm13.952 7.229h2.252a11.811 11.811 0 0 0-4.639-8.839l-1.6 1.61a9.566 9.566 0 0 1 3.986 7.229zm-2.218.563c0-3.457-1.847-6.351-5.067-7.117v-.765a1.689 1.689 0 1 0-3.378 0v.766C8.336 5.72 6.5 8.6 6.5 12.071V17.7l-2.252 2.254v1.126h18.017v-1.126L20.013 17.7zm-6.757 12.387a1.973 1.973 0 0 0 .45-.045 2.285 2.285 0 0 0 1.622-1.329 2.261 2.261 0 0 0 .169-.878h-4.5a2.268 2.268 0 0 0 2.263 2.252z" transform="translate(.256 .315)"/>
</svg>
