<svg xmlns="http://www.w3.org/2000/svg" width="18.572" height="22.572" viewBox="0 0 22.572 22.572">
    <defs>
        <style>
            .cls-1{fill:#a5bac3}
        </style>
    </defs>
    <g id="Group_2580" transform="translate(-47.151 -921)">
        <path id="Path_922" d="M9.94 0a9.94 9.94 0 1 0 9.94 9.94A9.952 9.952 0 0 0 9.94 0zm0 18.046a8.105 8.105 0 1 1 8.106-8.106 8.114 8.114 0 0 1-8.106 8.106z" class="cls-1" transform="translate(47.151 921)"/>
        <path id="Path_923" d="M357.873 356.575l-5.261-5.261a.917.917 0 0 0-1.3 1.3l5.261 5.261a.917.917 0 0 0 1.3-1.3z" class="cls-1" transform="translate(-288.418 585.431)"/>
    </g>
</svg>
