<svg xmlns="http://www.w3.org/2000/svg" width="41.68" height="41.68" viewBox="0 0 41.68 41.68">
    <path fill="#fff" d="M40.049 3H7.631A4.645 4.645 0 0 0 3 7.631v32.418a4.645 4.645 0 0 0 4.631 4.631h32.418a4.645 4.645 0 0 0 4.631-4.631V7.631A4.645 4.645 0 0 0 40.049 3zm-12.6 8.174a1.747 1.747 0 0 1 2.455 0l2.038 2.038 2.038-2.038a1.747 1.747 0 0 1 2.455 0 1.747 1.747 0 0 1 0 2.454L34.4 15.666l2.037 2.034a1.747 1.747 0 0 1 0 2.455 1.747 1.747 0 0 1-2.455 0l-2.038-2.015-2.038 2.038a1.747 1.747 0 0 1-2.455 0 1.747 1.747 0 0 1 0-2.455l2.038-2.038-2.038-2.038a1.733 1.733 0 0 1 .001-2.473zm-15.19 2.756h8.1a1.749 1.749 0 0 1 1.741 1.736 1.749 1.749 0 0 1-1.733 1.734h-8.1a1.749 1.749 0 0 1-1.737-1.737 1.749 1.749 0 0 1 1.732-1.734zm8.687 19.17h-2.895V36a1.749 1.749 0 0 1-1.737 1.737A1.749 1.749 0 0 1 14.578 36v-2.9h-2.895a1.749 1.749 0 0 1-1.737-1.737 1.749 1.749 0 0 1 1.737-1.737h2.894v-2.891A1.749 1.749 0 0 1 16.315 25a1.749 1.749 0 0 1 1.737 1.737v2.894h2.894a1.749 1.749 0 0 1 1.737 1.737 1.749 1.749 0 0 1-1.737 1.732zM36 36h-8.1a1.749 1.749 0 0 1-1.737-1.737 1.749 1.749 0 0 1 1.737-1.737H36a1.749 1.749 0 0 1 1.737 1.737A1.749 1.749 0 0 1 36 36zm0-5.789h-8.1a1.749 1.749 0 0 1-1.737-1.737 1.749 1.749 0 0 1 1.737-1.737H36a1.749 1.749 0 0 1 1.737 1.737A1.749 1.749 0 0 1 36 30.208z" transform="translate(-3 -3)"/>
</svg>
