<svg xmlns="http://www.w3.org/2000/svg" width="21.986" height="21.99" viewBox="0 0 21.986 21.99">
    <defs>
        <style>
            .cls-1{fill:#8a97a8}
        </style>
    </defs>
    <g id="instagram" transform="translate(-.449)">
        <path id="Path_1491" d="M22.379 6.465a8.035 8.035 0 0 0-.511-2.665A5.633 5.633 0 0 0 18.651.58a8.056 8.056 0 0 0-2.668-.511C14.806.013 14.432 0 11.447 0s-3.36.013-4.533.064a8.038 8.038 0 0 0-2.667.512A5.366 5.366 0 0 0 2.3 1.847a5.414 5.414 0 0 0-1.271 1.946 8.057 8.057 0 0 0-.511 2.668C.462 7.638.449 8.012.449 11s.013 3.359.064 4.532a8.035 8.035 0 0 0 .512 2.668 5.632 5.632 0 0 0 3.218 3.218 8.057 8.057 0 0 0 2.668.511c1.173.052 1.546.064 4.532.064s3.359-.013 4.532-.064a8.033 8.033 0 0 0 2.668-.511A5.625 5.625 0 0 0 21.86 18.2a8.062 8.062 0 0 0 .511-2.668c.052-1.173.064-1.546.064-4.532s-.004-3.362-.056-4.535zM20.4 15.443a6.027 6.027 0 0 1-.378 2.041 3.648 3.648 0 0 1-2.088 2.088 6.049 6.049 0 0 1-2.041.378c-1.16.052-1.508.064-4.442.064S8.165 20 7.009 19.95a6.024 6.024 0 0 1-2.041-.378 3.384 3.384 0 0 1-1.263-.821 3.419 3.419 0 0 1-.821-1.263 6.05 6.05 0 0 1-.378-2.041c-.052-1.16-.064-1.508-.064-4.442s.013-3.286.064-4.442a6.024 6.024 0 0 1 .378-2.041A3.342 3.342 0 0 1 3.71 3.26a3.414 3.414 0 0 1 1.263-.82 6.053 6.053 0 0 1 2.041-.378C8.173 2.01 8.521 2 11.455 2s3.286.013 4.442.064a6.027 6.027 0 0 1 2.041.378 3.381 3.381 0 0 1 1.263.82 3.418 3.418 0 0 1 .821 1.263 6.052 6.052 0 0 1 .378 2.039c.052 1.16.064 1.508.064 4.442s-.013 3.278-.064 4.437zm0 0" class="cls-1"/>
        <path id="Path_1492" d="M130.6 124.5a5.649 5.649 0 1 0 5.649 5.649 5.65 5.65 0 0 0-5.649-5.649zm0 9.313a3.664 3.664 0 1 1 3.664-3.664 3.665 3.665 0 0 1-3.664 3.664zm0 0" class="cls-1" transform="translate(-119.152 -119.152)"/>
        <path id="Path_1493" d="M365.087 89.92a1.319 1.319 0 1 1-1.319-1.319 1.319 1.319 0 0 1 1.319 1.319zm0 0" class="cls-1" transform="translate(-346.449 -84.795)"/>
    </g>
</svg>
