<svg xmlns="http://www.w3.org/2000/svg" width="37.983" height="41.361" viewBox="0 0 37.983 41.361">
    <path fill="#fff" d="M40.983 2.221a.99.99 0 0 0-.739.317L38.578 4.2a1.045 1.045 0 0 1-1.5 0l-1.665-1.662a1.045 1.045 0 0 0-1.5 0L32.247 4.2a1.045 1.045 0 0 1-1.5 0l-1.665-1.662a1.045 1.045 0 0 0-1.5 0L25.917 4.2a1.045 1.045 0 0 1-1.5 0l-1.666-1.662a1.045 1.045 0 0 0-1.5 0L19.586 4.2a1.045 1.045 0 0 1-1.5 0L16.4 2.517a1.045 1.045 0 0 0-1.5 0L13.234 4.2a1.045 1.045 0 0 1-1.5 0l-1.665-1.683a1.045 1.045 0 0 0-1.5 0L6.9 4.2a1.045 1.045 0 0 1-1.5 0L3.739 2.517A1.054 1.054 0 0 0 3 2.221V43.56a.99.99 0 0 0 .739-.317l1.667-1.667a1.045 1.045 0 0 1 1.5 0l1.667 1.667a1.045 1.045 0 0 0 1.5 0l1.667-1.667a1.045 1.045 0 0 1 1.5 0l1.66 1.668a1.045 1.045 0 0 0 1.5 0l1.667-1.667a1.045 1.045 0 0 1 1.5 0l1.667 1.667a1.045 1.045 0 0 0 1.5 0l1.666-1.667a1.045 1.045 0 0 1 1.5 0l1.667 1.667a1.045 1.045 0 0 0 1.5 0l1.667-1.667a1.045 1.045 0 0 1 1.5 0l1.667 1.667a1.045 1.045 0 0 0 1.5 0l1.667-1.667a1.045 1.045 0 0 1 1.5 0l1.667 1.667a1.06 1.06 0 0 0 .739.317V2.221zm-8.441 31.21h-21.1a2.11 2.11 0 0 1 0-4.22h21.1a2.11 2.11 0 0 1 0 4.22zm0-8.441h-21.1a2.11 2.11 0 0 1 0-4.22h21.1a2.11 2.11 0 0 1 0 4.22zm0-8.441h-21.1a2.11 2.11 0 0 1 0-4.22h21.1a2.11 2.11 0 0 1 0 4.22z" transform="translate(-3 -2.2)"/>
</svg>
