<svg xmlns="http://www.w3.org/2000/svg" width="24.483" height="19.893" viewBox="0 0 24.483 19.893">
    <path fill="#8a97a8" d="M24.483 50.355a10.465 10.465 0 0 1-2.892.793 4.991 4.991 0 0 0 2.209-2.775 10.031 10.031 0 0 1-3.183 1.215 5.019 5.019 0 0 0-8.682 3.432 5.168 5.168 0 0 0 .116 1.145A14.207 14.207 0 0 1 1.7 48.915a5.021 5.021 0 0 0 1.542 6.708 4.957 4.957 0 0 1-2.268-.618v.055A5.042 5.042 0 0 0 5 59.992a5.009 5.009 0 0 1-1.316.165 4.438 4.438 0 0 1-.95-.086 5.067 5.067 0 0 0 4.69 3.5A10.085 10.085 0 0 1 1.2 65.709 9.4 9.4 0 0 1 0 65.64a14.131 14.131 0 0 0 7.7 2.252A14.188 14.188 0 0 0 21.986 53.61c0-.222-.008-.436-.018-.649a10.013 10.013 0 0 0 2.515-2.606z" transform="translate(0 -48)"/>
</svg>
