<svg xmlns="http://www.w3.org/2000/svg" width="41.68" height="41.68" viewBox="0 0 41.68 41.68">
    <path fill="#fff" d="M5.316 26.156h13.893a2.322 2.322 0 0 0 2.316-2.316V5.316A2.322 2.322 0 0 0 19.209 3H5.316A2.322 2.322 0 0 0 3 5.316V23.84a2.322 2.322 0 0 0 2.316 2.316zm0 18.525h13.893a2.322 2.322 0 0 0 2.316-2.316V33.1a2.322 2.322 0 0 0-2.316-2.316H5.316A2.322 2.322 0 0 0 3 33.1v9.262a2.322 2.322 0 0 0 2.316 2.318zm23.155 0h13.893a2.322 2.322 0 0 0 2.316-2.316V23.84a2.322 2.322 0 0 0-2.316-2.316H28.471a2.322 2.322 0 0 0-2.316 2.316v18.525a2.322 2.322 0 0 0 2.316 2.315zM26.155 5.316v9.262a2.322 2.322 0 0 0 2.316 2.316h13.893a2.322 2.322 0 0 0 2.316-2.316V5.316A2.322 2.322 0 0 0 42.364 3H28.471a2.322 2.322 0 0 0-2.316 2.316z" transform="translate(-3 -3)"/>
</svg>
