<svg xmlns="http://www.w3.org/2000/svg" width="28.683" height="20.72" viewBox="0 0 28.683 20.72">
    <path fill="#8a97a8" d="M9279.342 713.719c-.089 0-8.979-.007-11.223-.634a3.643 3.643 0 0 1-2.527-2.608 43.093 43.093 0 0 1 0-14.234 3.728 3.728 0 0 1 2.527-2.633c2.219-.6 11.134-.61 11.223-.61s9 .007 11.224.634a3.651 3.651 0 0 1 2.526 2.608 38.526 38.526 0 0 1 .591 7.138 40.388 40.388 0 0 1-.591 7.121 3.65 3.65 0 0 1-2.526 2.608c-2.219.603-11.134.61-11.224.61zm-2.859-14.8v8.871l7.466-4.435-7.466-4.435z" transform="translate(-9265 -693)"/>
</svg>
