<svg xmlns="http://www.w3.org/2000/svg" width="27.863" height="25.076" viewBox="0 0 27.863 25.076">
    <defs>
        <style>
            .cls-1{fill:#24be92}
        </style>
    </defs>
    <g id="Group_680" transform="translate(-575.849 -413.963)">
        <circle id="Ellipse_82" cx="3.748" cy="3.748" r="3.748" class="cls-1" transform="translate(586.032 424.004)"/>
        <path id="Path_860" d="M27.076 4.786H22.66l-1.727-1.88A2.773 2.773 0 0 0 18.885 2h-5.907a2.827 2.827 0 0 0-2.062.906L9.2 4.786H4.786A2.794 2.794 0 0 0 2 7.573V24.29a2.794 2.794 0 0 0 2.786 2.786h22.29a2.794 2.794 0 0 0 2.786-2.786V7.573a2.794 2.794 0 0 0-2.786-2.787zM15.931 22.9a6.966 6.966 0 1 1 6.969-6.969 6.968 6.968 0 0 1-6.969 6.969z" class="cls-1" transform="translate(573.849 411.963)"/>
    </g>
</svg>
