<svg xmlns="http://www.w3.org/2000/svg" width="22.623" height="24.634" viewBox="0 0 22.623 24.634">
    <path fill="#24be92" d="M25.623 2.213a.59.59 0 0 0-.44.189l-.993.993a.622.622 0 0 1-.892 0l-.993-.995a.622.622 0 0 0-.892 0l-.993.993a.622.622 0 0 1-.892 0l-.994-.993a.622.622 0 0 0-.892 0l-.993.993a.622.622 0 0 1-.892 0l-.993-.993a.622.622 0 0 0-.892 0l-.993.993a.622.622 0 0 1-.892 0l-1.006-1.004a.622.622 0 0 0-.892 0L9.1 3.394a.622.622 0 0 1-.892 0L7.21 2.389a.622.622 0 0 0-.892 0l-.993 1.005a.622.622 0 0 1-.892 0L3.44 2.389A.628.628 0 0 0 3 2.213v24.621a.59.59 0 0 0 .44-.189l.993-.993a.622.622 0 0 1 .892 0l.993.993a.622.622 0 0 0 .892 0l.993-.993a.622.622 0 0 1 .892 0l.993.993a.622.622 0 0 0 .892 0l.993-.993a.622.622 0 0 1 .892 0l.993.993a.622.622 0 0 0 .892 0l.993-.993a.622.622 0 0 1 .892 0l.993.993a.622.622 0 0 0 .892 0l.993-.993a.622.622 0 0 1 .892 0l.993.993a.622.622 0 0 0 .892 0l.993-.993a.622.622 0 0 1 .892 0l.993.993a.631.631 0 0 0 .44.189V2.213zM20.6 20.8H8.027a1.257 1.257 0 0 1 0-2.514H20.6a1.257 1.257 0 0 1 0 2.514zm0-5.027H8.027a1.257 1.257 0 0 1 0-2.514H20.6a1.257 1.257 0 0 1 0 2.514zm0-5.027H8.027a1.257 1.257 0 0 1 0-2.514H20.6a1.257 1.257 0 0 1 0 2.514z" transform="translate(-3 -2.2)"/>
</svg>
