<svg xmlns="http://www.w3.org/2000/svg" width="10.411" height="18.001" viewBox="0 0 10.411 18.001">
    <path fill="#fff" d="M15.238 11.716V9.43a14.234 14.234 0 0 0-3.06-9.247.515.515 0 0 0-.784 0A14.082 14.082 0 0 0 8.275 9.43v2.287L7.853 12a2.955 2.955 0 0 0-1.3 2.45v2.729a.442.442 0 0 0 .232.388.438.438 0 0 0 .451-.023l1.364-.913a2.348 2.348 0 0 1 1.3-.393h1.008v1.322a.44.44 0 0 0 .44.44h.807a.44.44 0 0 0 .44-.44v-1.322h1.008a2.34 2.34 0 0 1 1.3.394l1.37.913a.438.438 0 0 0 .451.023.442.442 0 0 0 .232-.388v-2.729a2.96 2.96 0 0 0-1.3-2.45zm-3.481-3.582a1.517 1.517 0 1 1 1.517-1.517 1.518 1.518 0 0 1-1.517 1.517z" transform="translate(-6.551)"/>
</svg>
