<svg xmlns="http://www.w3.org/2000/svg" id="Group_537" width="14.199" height="18.201" viewBox="0 0 14.199 18.201">
    <defs>
        <style>
            .cls-1{fill:#fff}
        </style>
    </defs>
    <path id="Path_798" d="M17.741 11.131c-1.394-3.622-6.356-3.817-5.157-9.081a.448.448 0 0 0-.666-.488 8.281 8.281 0 0 0-3.6 10.7.442.442 0 0 1-.666.524 4.42 4.42 0 0 1-1.628-4.221.444.444 0 0 0-.808-.3A8.346 8.346 0 0 0 4 12.924a7.149 7.149 0 0 0 6.045 6.693 7.614 7.614 0 0 0 6.169-1.66 6.137 6.137 0 0 0 1.527-6.826zM9.5 15.6a2.743 2.743 0 0 0 2.113-2.05c.293-1.269-.852-2.512-.08-4.518.293 1.66 2.9 2.7 2.9 4.509.077 2.241-2.355 4.167-4.933 2.059z" class="cls-1" transform="translate(-4 -1.496)"/>
    <path id="Path_799" d="M17.741 11.131c-1.394-3.622-6.356-3.817-5.157-9.081a.448.448 0 0 0-.666-.488 8.281 8.281 0 0 0-3.6 10.7.442.442 0 0 1-.666.524 4.42 4.42 0 0 1-1.628-4.221.444.444 0 0 0-.808-.3A8.346 8.346 0 0 0 4 12.924a7.149 7.149 0 0 0 6.045 6.693 7.614 7.614 0 0 0 6.169-1.66 6.137 6.137 0 0 0 1.527-6.826zM9.5 15.6a2.743 2.743 0 0 0 2.113-2.05c.293-1.269-.852-2.512-.08-4.518.293 1.66 2.9 2.7 2.9 4.509.077 2.241-2.355 4.167-4.933 2.059z" class="cls-1" transform="translate(-4 -1.496)"/>
</svg>
