<svg xmlns="http://www.w3.org/2000/svg" width="14.694" height="16" viewBox="0 0 14.694 16">
    <path fill="#fff" d="M17.694 2.208a.383.383 0 0 0-.286.122l-.645.645a.4.4 0 0 1-.58 0l-.645-.645a.4.4 0 0 0-.58 0l-.645.645a.4.4 0 0 1-.58 0l-.645-.645a.4.4 0 0 0-.58 0l-.645.645a.4.4 0 0 1-.58 0l-.645-.645a.4.4 0 0 0-.58 0l-.645.645a.4.4 0 0 1-.58 0l-.653-.653a.4.4 0 0 0-.58 0l-.645.653a.4.4 0 0 1-.58 0l-.645-.653a.4.4 0 0 0-.58 0l-.645.653a.4.4 0 0 1-.58 0l-.645-.653A.408.408 0 0 0 3 2.208V18.2a.383.383 0 0 0 .286-.122l.645-.645a.4.4 0 0 1 .58 0l.645.645a.4.4 0 0 0 .58 0l.645-.645a.4.4 0 0 1 .58 0l.645.645a.4.4 0 0 0 .58 0l.645-.645a.4.4 0 0 1 .58 0l.645.645a.4.4 0 0 0 .58 0l.645-.645a.4.4 0 0 1 .58 0l.645.645a.4.4 0 0 0 .58 0l.645-.645a.4.4 0 0 1 .58 0l.645.645a.4.4 0 0 0 .58 0l.645-.645a.4.4 0 0 1 .58 0l.645.645a.41.41 0 0 0 .286.122V2.208zm-3.265 12.074H6.265a.816.816 0 1 1 0-1.633h8.163a.816.816 0 1 1 0 1.633zm0-3.265H6.265a.816.816 0 1 1 0-1.633h8.163a.816.816 0 1 1 0 1.633zm0-3.265H6.265a.816.816 0 1 1 0-1.633h8.163a.816.816 0 1 1 0 1.633z" transform="translate(-3 -2.2)"/>
</svg>
