<svg xmlns="http://www.w3.org/2000/svg" width="21.362" height="21.362" viewBox="0 0 21.362 21.362">
    <path fill="#9babb7" d="M12.681 2a10.681 10.681 0 1 0 10.681 10.681A10.685 10.685 0 0 0 12.681 2zm-.16 17.09a1.34 1.34 0 0 1-1.346-1.346 1.325 1.325 0 0 1 1.346-1.335 1.309 1.309 0 0 1 1.335 1.335 1.331 1.331 0 0 1-1.335 1.346zm3.215-7.9c-.812 1.186-1.581 1.559-2 2.318a1.679 1.679 0 0 0-.2.63.98.98 0 0 1-.961.876h-.043a.96.96 0 0 1-.961-1.047 2.515 2.515 0 0 1 .32-1.068c.523-.929 1.517-1.485 2.094-2.307A1.586 1.586 0 0 0 12.521 8.1a1.85 1.85 0 0 0-1.613.908.952.952 0 0 1-1.581-1.059A3.729 3.729 0 0 1 12.5 6.272 3.6 3.6 0 0 1 15.715 7.9a3.223 3.223 0 0 1 .021 3.286z" transform="translate(-2 -2)"/>
</svg>
