<svg xmlns="http://www.w3.org/2000/svg" width="21.401" height="23.303" viewBox="0 0 21.401 23.303">
    <path fill="#a5bac3" d="M24.4 2.212a.558.558 0 0 0-.416.178l-.939.939a.589.589 0 0 1-.844 0l-.939-.939a.589.589 0 0 0-.844 0l-.939.939a.589.589 0 0 1-.844 0L17.7 2.39a.589.589 0 0 0-.844 0l-.939.939a.589.589 0 0 1-.844 0l-.939-.939a.589.589 0 0 0-.844 0l-.939.939a.589.589 0 0 1-.844 0l-.951-.951a.589.589 0 0 0-.844 0l-.939.951a.589.589 0 0 1-.844 0l-.939-.951a.589.589 0 0 0-.844 0l-.946.951a.589.589 0 0 1-.844 0l-.939-.951A.594.594 0 0 0 3 2.212V25.5a.558.558 0 0 0 .416-.178l.939-.939a.589.589 0 0 1 .844 0l.939.939a.589.589 0 0 0 .844 0l.939-.939a.589.589 0 0 1 .844 0l.939.939a.589.589 0 0 0 .844 0l.939-.939a.589.589 0 0 1 .844 0l.939.939a.589.589 0 0 0 .844 0l.939-.939a.589.589 0 0 1 .844 0l.939.939a.589.589 0 0 0 .844 0l.939-.939a.589.589 0 0 1 .844 0l.939.939a.589.589 0 0 0 .844 0l.939-.939a.589.589 0 0 1 .844 0l.939.939a.6.6 0 0 0 .416.178V2.212zM19.645 19.8H7.756a1.189 1.189 0 0 1 0-2.378h11.889a1.189 1.189 0 0 1 0 2.378zm0-4.756H7.756a1.189 1.189 0 0 1 0-2.378h11.889a1.189 1.189 0 0 1 0 2.378zm0-4.756H7.756a1.189 1.189 0 0 1 0-2.378h11.889a1.189 1.189 0 0 1 0 2.378z" transform="translate(-3 -2.2)"/>
</svg>
