<svg xmlns="http://www.w3.org/2000/svg" width="19.219" height="24.023" viewBox="0 0 19.219 24.023">
    <path fill="#a5bac3" d="M16.72 2.709A2.41 2.41 0 0 0 15.015 2H6.4A2.409 2.409 0 0 0 4 4.4v19.221a2.4 2.4 0 0 0 2.39 2.4h14.426a2.409 2.409 0 0 0 2.4-2.4V10.2a2.362 2.362 0 0 0-.706-1.69l-5.79-5.8zm.492 18.51h-7.206a1.2 1.2 0 0 1 0-2.4h7.207a1.2 1.2 0 1 1 0 2.4zm0-4.8h-7.206a1.2 1.2 0 1 1 0-2.4h7.207a1.2 1.2 0 1 1 0 2.4zm-2.4-7.207V3.8l6.606 6.606h-5.406a1.2 1.2 0 0 1-1.201-1.199z" transform="translate(-4 -2)"/>
</svg>
