<svg xmlns="http://www.w3.org/2000/svg" width="23.778" height="19.023" viewBox="0 0 23.778 19.023">
    <path fill="#a5bac3" d="M23.4 6.378h-9.511L12.213 4.7a2.385 2.385 0 0 0-1.688-.7H4.378a2.375 2.375 0 0 0-2.366 2.378L2 20.645a2.385 2.385 0 0 0 2.378 2.378H23.4a2.385 2.385 0 0 0 2.378-2.378V8.756A2.385 2.385 0 0 0 23.4 6.378zm-8.322 11.889H7.945a1.189 1.189 0 0 1 0-2.378h7.134a1.189 1.189 0 0 1 0 2.378zm4.756-4.756H7.945a1.189 1.189 0 0 1 0-2.378h11.889a1.189 1.189 0 0 1 0 2.378z" transform="translate(-2 -4)"/>
</svg>
