<svg xmlns="http://www.w3.org/2000/svg" width="26.156" height="22.605" viewBox="0 0 26.156 22.605">
    <path fill="#9babb7" d="M25.967 10.325h-5.695l-5.219-7.811a1.189 1.189 0 0 0-1.974 0L7.86 10.325H2.189A1.192 1.192 0 0 0 1 11.514a1 1 0 0 0 .048.321l3.02 11.021a2.364 2.364 0 0 0 2.282 1.736h15.456a2.389 2.389 0 0 0 2.294-1.736l3.02-11.021.036-.321a1.192 1.192 0 0 0-1.189-1.189zM14.066 5.32l3.341 5.005h-6.682zm.012 14.517a2.378 2.378 0 1 1 2.378-2.378 2.385 2.385 0 0 1-2.378 2.377z" transform="translate(-1 -1.987)"/>
</svg>
