<svg xmlns="http://www.w3.org/2000/svg" width="21.401" height="21.401" viewBox="0 0 21.401 21.401">
    <path fill="#a5bac3" d="M4.189 14.889h7.134a1.192 1.192 0 0 0 1.188-1.189V4.189A1.192 1.192 0 0 0 11.322 3H4.189A1.192 1.192 0 0 0 3 4.189V13.7a1.192 1.192 0 0 0 1.189 1.189zm0 9.512h7.134a1.192 1.192 0 0 0 1.189-1.189v-4.756a1.192 1.192 0 0 0-1.189-1.189H4.189A1.192 1.192 0 0 0 3 18.456v4.756A1.192 1.192 0 0 0 4.189 24.4zm11.889 0h7.134a1.192 1.192 0 0 0 1.188-1.189V13.7a1.192 1.192 0 0 0-1.189-1.189h-7.133a1.192 1.192 0 0 0-1.189 1.189v9.512a1.192 1.192 0 0 0 1.189 1.188zM14.889 4.189v4.756a1.192 1.192 0 0 0 1.189 1.189h7.134A1.192 1.192 0 0 0 24.4 8.945V4.189A1.192 1.192 0 0 0 23.212 3h-7.134a1.192 1.192 0 0 0-1.189 1.189z" transform="translate(-3 -3)"/>
</svg>
